<svg width="51" height="50" viewBox="0 0 51 50" fill="none" xmlns="http://www.w3.org/2000/svg">
<g clip-path="url(#clip0_3_94)">
<path d="M41.3795 49.6896H9.08752C4.19152 49.6896 0.233521 45.7113 0.233521 40.7902V9.58898C0.233521 4.66787 4.19152 0.689575 9.08752 0.689575H41.3795C46.2755 0.689575 50.2335 4.66787 50.2335 9.58898V40.7902C50.2335 45.7113 46.2755 49.6896 41.3795 49.6896Z" fill="#FF26BE"/>
<path d="M40.5875 47.5949H9.8795C5.7135 47.5949 2.3175 44.1815 2.3175 39.9941V10.3851C2.3175 6.19772 5.7135 2.7843 9.8795 2.7843H40.5675C44.7555 2.7843 48.1295 6.19772 48.1295 10.3851V39.974C48.1495 44.1815 44.7535 47.5949 40.5875 47.5949Z" fill="#2E001F"/>
<path d="M20.0035 23.6186L25.8375 34.884C25.9415 35.0509 25.8795 35.2198 25.7115 35.2198H22.0855C21.8555 35.2198 21.7515 35.1574 21.6475 34.9484C20.3135 32.1843 18.9595 29.4202 17.5635 26.447H17.5215C16.2715 29.2533 14.8955 32.2064 13.5635 34.9705C13.4595 35.1373 13.3555 35.2017 13.1875 35.2017H9.75353C9.54553 35.2017 9.52353 35.0348 9.62953 34.9082L15.3375 23.9764L9.81753 12.92C9.69153 12.7531 9.81753 12.6265 9.94153 12.6265H13.5255C13.7335 12.6265 13.8175 12.6687 13.8995 12.8577C15.2115 15.6218 16.5455 18.4703 17.7955 21.2545H17.8375C19.0455 18.4904 20.3795 15.6218 21.6715 12.8778C21.7755 12.7109 21.8375 12.6064 22.0475 12.6064H25.4015C25.5675 12.6064 25.6315 12.733 25.5275 12.8999L20.0035 23.6186ZM26.8595 27.032C26.8595 22.1531 30.0895 18.3416 35.2135 18.3416C35.6515 18.3416 35.8795 18.3416 36.2975 18.3839V12.8356C36.2975 12.7089 36.4015 12.6265 36.5055 12.6265H39.7975C39.9635 12.6265 40.0055 12.6888 40.0055 12.7933V32.0174C40.0055 32.5823 40.0055 33.2939 40.1095 34.0699C40.1095 34.1965 40.0675 34.2367 39.9435 34.3011C38.1935 35.1393 36.3595 35.5153 34.6095 35.5153C30.0875 35.5334 26.8575 32.7291 26.8595 27.032ZM36.2955 21.6726C36.0035 21.546 35.5875 21.4636 35.0875 21.4636C32.4615 21.4636 30.6295 23.4939 30.6295 26.8671C30.6295 30.7208 32.5055 32.2707 34.8595 32.2707C35.3595 32.2707 35.9015 32.2084 36.2975 32.0395V21.6726H36.2955Z" fill="#FFD9F2"/>
</g>
<defs>
<clipPath id="clip0_3_94">
<rect width="50" height="49" fill="white" transform="translate(0.233521 0.689575)"/>
</clipPath>
</defs>
</svg>
