<svg width="37" height="38" viewBox="0 0 37 38" fill="none" xmlns="http://www.w3.org/2000/svg">
<path d="M18.5 0.875C8.50625 0.875 0.375 9.00875 0.375 19.0025C0.375 28.995 8.505 37.125 18.5 37.125C28.495 37.125 36.625 28.995 36.625 19.0025C36.625 9.00875 28.4937 0.875 18.5 0.875ZM18.5 2.71875C22.5012 2.71875 26.1688 4.17 29.0063 6.5725C28.985 6.59875 28.965 6.62875 28.9463 6.65625C28.9275 6.685 27.2263 9.37125 23.125 11.8988C22.2313 12.4475 21.1763 13.0162 19.9538 13.5575C17.3625 8.5725 14.5137 5.15625 13.1187 3.635C14.8037 3.0425 16.615 2.71875 18.5 2.71875ZM11.305 4.3975C12.3013 5.44 15.43 8.9225 18.2338 14.2537C14.3913 15.6762 9.19125 16.7225 2.42625 16.39C3.28 11.1163 6.67375 6.6875 11.305 4.3975ZM6.78625 30.3025C3.95875 27.3687 2.21625 23.3863 2.21625 19.0025C2.21625 18.7413 2.22125 18.4825 2.235 18.225C3.15625 18.2737 4.04875 18.295 4.91625 18.295C10.8288 18.295 15.4975 17.255 19.0638 15.9125C19.345 16.5 19.6187 17.1087 19.885 17.7375C20.0787 18.19 20.265 18.6462 20.4425 19.0975C14.1213 20.8912 9.41375 24.7325 6.81625 30.2287C6.80625 30.255 6.79625 30.2762 6.78625 30.3025ZM18.5 35.2838C14.5162 35.2838 10.8625 33.845 8.03 31.46C8.2225 31.3738 8.38625 31.2213 8.48375 31.0175C10.8675 25.9688 15.2287 22.45 21.1012 20.825C23.575 27.6362 24.38 33.38 24.4812 34.1463C22.6287 34.8813 20.61 35.2838 18.5 35.2838ZM26.2275 33.3313C25.9612 31.5288 25.0825 26.4363 22.9138 20.4175C27.99 19.535 33.3325 20.6187 34.67 20.9237C34.035 26.29 30.7812 30.8663 26.2275 33.3313ZM22.2538 18.6638C22.04 18.1163 21.815 17.57 21.5813 17.0163C21.3188 16.395 21.0462 15.7925 20.7712 15.2112C22.095 14.6212 23.235 14 24.1988 13.4012C27.965 11.0575 29.8375 8.61125 30.36 7.8575C33.1 10.7713 34.7838 14.6938 34.7838 19.0025C34.7838 19.0225 34.7825 19.04 34.7825 19.06C32.9138 18.65 27.4938 17.6625 22.2538 18.6638Z" fill="#E3E4E6"/>
</svg>
