<svg width="41" height="40" viewBox="0 0 41 40" fill="none" xmlns="http://www.w3.org/2000/svg">
<path d="M4.21875 20C4.21875 24.3512 5.94726 28.5242 9.02403 31.601C12.1008 34.6777 16.2738 36.4062 20.625 36.4062C24.9762 36.4062 29.1492 34.6777 32.226 31.601C35.3027 28.5242 37.0312 24.3512 37.0312 20C37.0312 15.6488 35.3027 11.4758 32.226 8.39903C29.1492 5.32226 24.9762 3.59375 20.625 3.59375C16.2738 3.59375 12.1008 5.32226 9.02403 8.39903C5.94726 11.4758 4.21875 15.6488 4.21875 20Z" stroke="#00E19A" stroke-miterlimit="10"/>
<path d="M14.5625 4.75C17.4521 8.00973 19.9098 11.628 21.875 15.5156C22.806 17.3199 23.6303 19.1773 24.3438 21.0781C26.0342 25.4975 27.1629 30.1118 27.7031 34.8125" stroke="#00E19A" stroke-miterlimit="10"/>
<path d="M32.6094 8.78125C29.5847 11.8065 25.915 14.1087 21.875 15.5156C16.2781 17.6852 10.2947 18.6797 4.29688 18.4375" stroke="#00E19A" stroke-miterlimit="10"/>
<path d="M36.9062 21.8907C32.8678 20.6064 28.5769 20.3275 24.4062 21.0782C21.2604 21.6741 18.3 23.0053 15.7665 24.9631C13.233 26.9209 11.1982 29.4499 9.82812 32.3438" stroke="#00E19A" stroke-miterlimit="10"/>
</svg>
