<svg width="71" height="71" viewBox="0 0 71 71" fill="none" xmlns="http://www.w3.org/2000/svg">
<g clip-path="url(#clip0_3_74)">
<path d="M0.605347 0.163208H70.8774V70.4353H0.605347V0.163208Z" fill="#F7DF1E"/>
<path d="M19.0825 58.8876L24.46 55.6331C25.4976 57.4726 26.4414 59.029 28.7052 59.029C30.8751 59.029 32.2435 58.1802 32.2435 54.8785V32.425H38.8471V54.9719C38.8471 61.8116 34.8378 64.925 28.9882 64.925C23.7054 64.925 20.639 62.189 19.0823 58.8871M42.434 58.1799L47.8109 55.0668C49.2265 57.3784 51.0662 59.0765 54.3207 59.0765C57.0572 59.0765 58.8019 57.7084 58.8019 55.8214C58.8019 53.5574 57.0094 52.7553 53.9905 51.4349L52.3399 50.7267C47.5754 48.699 44.4151 46.1516 44.4151 40.7742C44.4151 35.8211 48.1886 32.0472 54.0852 32.0472C58.2834 32.0472 61.3023 33.5098 63.472 37.3305L58.3301 40.6328C57.1977 38.6045 55.9718 37.8027 54.0849 37.8027C52.1508 37.8027 50.9243 39.0292 50.9243 40.6328C50.9243 42.6139 52.1508 43.4162 54.9809 44.6427L56.6317 45.3501C62.2453 47.7561 65.4056 50.2087 65.4056 55.7273C65.4056 61.6713 60.7358 64.9258 54.4621 64.9258C48.33 64.9258 44.3676 62.0013 42.4337 58.1802" fill="black"/>
</g>
<defs>
<clipPath id="clip0_3_74">
<rect width="70.2721" height="70.2721" fill="white" transform="translate(0.605347 0.163208)"/>
</clipPath>
</defs>
</svg>
