<svg width="252" height="180" viewBox="0 0 252 180" fill="none" xmlns="http://www.w3.org/2000/svg">
<path d="M71.0253 107.341C70.7971 107.624 70.5603 107.686 70.3358 107.709C70.0523 107.732 69.7908 107.872 69.5521 108.064C69.3734 108.191 69.207 108.28 69.0168 108.381C68.5344 108.286 68.0959 108.424 67.646 108.535C67.042 108.697 66.4381 108.859 65.8579 109.008C65.8341 109.021 65.7989 109.008 65.7751 109.02C65.002 109.465 64.1182 109.391 63.2897 109.577C62.8874 109.663 62.4859 109.685 62.0941 109.862C61.9514 109.938 61.7983 109.924 61.6328 109.948C61.101 110.007 60.5588 109.975 60.027 110.035C59.578 110.082 59.1194 109.973 58.6484 109.904C58.4953 109.889 58.3307 109.849 58.1889 109.86C57.3385 109.929 56.5145 109.791 55.6668 109.666C54.5128 109.511 53.372 109.254 52.2549 108.983C51.1845 108.752 50.1749 108.392 49.1539 108.006C47.9216 107.541 46.6779 107.049 45.4703 106.506C44.8489 106.228 44.2513 105.937 43.667 105.543C43.2929 105.293 42.8828 105.095 42.5202 104.871C41.8064 104.449 41.1041 104.054 40.4378 103.607C39.7716 103.16 39.1063 102.649 38.4524 102.163C37.9737 101.809 37.4835 101.429 37.0048 101.074C36.9467 101.009 36.8762 100.982 36.8182 100.917C35.4436 99.6606 34.0576 98.3781 32.6707 97.1604C31.2258 95.8773 29.8768 94.4788 28.5992 93.0422C27.589 91.8801 26.6388 90.654 25.6286 89.492C24.0501 87.6382 22.6987 85.5669 21.3351 83.5342C20.5494 82.3486 19.8351 81.1249 19.0856 79.8879C18.5894 79.0935 18.1646 78.261 17.716 77.4411C17.5779 77.1939 17.357 76.9587 17.2189 76.7114C17.0693 76.4381 17.0026 76.1528 16.8768 75.8668C16.5215 75.1256 16.1547 74.3584 15.7518 73.6426C15.2794 72.8354 14.9734 71.9394 14.5486 71.1069C13.8379 69.6245 13.2812 68.092 12.6656 66.5588C12.6085 66.4288 12.5751 66.2861 12.4941 66.1688C11.815 64.9585 11.3974 63.6084 10.8962 62.3352C10.7818 62.0753 10.7503 61.8032 10.6597 61.5306C10.5806 61.2839 10.5129 61.0632 10.4338 60.8166C10.1383 60.0113 9.81912 59.2186 9.51225 58.3874C9.31878 57.8807 9.09008 57.3609 9.01549 56.7908C8.99442 56.6094 8.87921 56.4141 8.8344 56.2454C8.71044 55.8301 8.59886 55.3761 8.4749 54.9607C8.43007 54.792 8.38523 54.6234 8.32806 54.4934C7.87527 53.1301 7.56422 51.7553 7.19419 50.38C6.90236 49.3159 6.69326 48.2398 6.41287 47.2018C6.15444 46.2805 5.93121 45.3724 5.80307 44.4136C5.70835 43.5975 5.53081 42.7934 5.44752 42.0033C5.34407 40.9671 5.15793 39.943 4.97173 38.9189C4.76538 37.6487 4.58281 36.3659 4.56575 35.0589C4.55015 34.4894 4.45176 33.932 4.43616 33.3625C4.3995 32.6117 4.38661 31.8482 4.33852 31.0713C4.29406 30.0358 4.2144 28.9869 4.16993 27.9513C4.12548 26.9157 4.081 25.8802 4.06032 24.8319C4.036 24.0424 4.09446 23.2408 4.08158 22.4772C4.06869 21.7137 4.091 20.9635 4.16088 20.1879C4.25816 19.1409 4.21369 18.1053 4.13401 17.0564C4.09282 16.629 4.12202 16.2282 4.22257 15.7893C4.50043 14.4854 4.60136 13.1796 4.63185 11.8472C4.65417 11.097 4.78211 10.3867 4.93383 9.66373C5.11023 8.86335 5.26286 8.07563 5.25088 7.24741C5.25542 6.92399 5.30753 6.57519 5.39483 6.23968C5.55617 5.67206 5.58806 5.07723 5.56102 4.48174C5.53216 4.01564 5.52712 3.53687 5.5106 3.03208C5.25725 2.58951 5.03909 2.16025 4.6184 1.87121C4.3843 1.73939 4.24621 1.49216 4.15564 1.21949C4.07653 0.972835 3.97363 0.738828 3.88216 0.53085C3.72991 0.451628 3.58899 0.398401 3.43673 0.319179C3.40061 0.370574 3.35309 0.395926 3.35219 0.460617C3.1854 1.41636 3.04242 2.35945 2.86421 3.28919C2.76184 3.85744 2.64805 4.39965 2.68742 4.95644C2.70758 5.20249 2.64498 5.46061 2.57094 5.69275C2.45987 6.04095 2.44294 6.40309 2.42606 6.76519C2.41608 7.47673 2.33574 8.16163 2.13738 8.84533C1.91525 9.54172 1.76352 10.2647 1.60037 10.9617C1.56335 11.0777 1.5263 11.1938 1.53683 11.2845C1.59543 12.152 1.4181 13.0171 1.54714 13.9112C1.63407 14.4426 1.60309 14.9728 1.48931 15.515C1.40019 15.9799 1.38149 16.4714 1.29238 16.9362C1.22795 17.3237 1.23392 17.7379 1.1343 18.1121C0.984382 18.7057 0.952453 19.3006 1.00326 19.8833C1.05317 20.5308 1.12682 21.1656 1.17671 21.813C1.23987 22.3571 1.26785 22.8879 1.17783 23.4174C1.02519 24.2051 1.13227 24.9826 1.10905 25.7975C1.09724 26.6384 1.34512 27.4691 1.3571 28.2973C1.38413 28.8928 1.41121 29.4882 1.43825 30.0837C1.44877 30.1744 1.45928 30.2651 1.4346 30.3425C1.23442 31.1555 1.3767 31.9462 1.50664 32.7757C1.58305 33.2164 1.55293 33.6819 1.54657 34.1347C1.5375 34.7815 1.6112 35.4163 1.77906 36.065C1.81246 36.2077 1.84585 36.3503 1.86782 36.467C1.96255 37.2832 2.05726 38.0993 2.17576 38.9027C2.22839 39.3561 2.3286 39.7841 2.42878 40.2122C2.60627 41.0162 2.77142 41.859 2.96034 42.689C2.97087 42.7797 2.9814 42.8704 2.98049 42.9351C3.05744 44.178 3.34741 45.3715 3.61365 46.5775C3.79113 47.3816 3.93346 48.1723 4.15849 48.951C4.49514 50.1837 4.80801 51.4291 5.31017 52.6376C5.6294 53.4302 5.94862 54.2228 6.0301 55.1423C6.03881 55.3624 6.13028 55.5704 6.22175 55.7783C6.74497 57.1682 7.28055 58.5194 7.80376 59.9093C7.90575 60.208 7.9725 60.4934 8.05072 60.8047C8.11842 61.0254 8.1509 61.2327 8.24237 61.4407C9.09624 63.6492 9.92636 65.8704 10.804 68.0662C11.2033 69.0408 11.6976 69.9646 12.1444 70.9137C12.1787 70.9917 12.213 71.0697 12.2473 71.1477C12.6027 71.8889 12.9581 72.6301 13.3486 73.3847C13.7049 74.0612 14.0611 74.7377 14.4288 75.4402C14.6812 75.9475 14.9688 76.468 15.2451 76.9626C15.5899 77.6131 15.9347 78.2637 16.3147 78.9275C16.7405 79.6953 17.1662 80.4632 17.6395 81.2056C18.4014 82.4039 19.1633 83.6022 19.9252 84.8005C20.4451 85.5822 20.9166 86.454 21.5916 87.1209C21.6496 87.1862 21.7077 87.2516 21.7305 87.3035C22.4476 88.3332 23.1646 89.3628 23.8816 90.3924C23.9511 90.4837 23.9969 90.5877 24.055 90.653C24.6014 91.228 24.9691 91.9306 25.5279 92.4669C25.7373 92.6761 25.8869 92.9493 26.0725 93.1712C26.8028 94.0975 27.5217 94.9977 28.348 95.8086C28.3594 95.8345 28.3946 95.8479 28.406 95.8739C28.9163 96.5002 29.4505 97.1139 30.0445 97.6635C30.4053 98.0166 30.7061 98.4338 31.0784 98.8129C31.8571 99.6491 32.6605 100.408 33.4992 101.18C34.7452 102.345 36.0512 103.445 37.3334 104.558C37.3801 104.597 37.4153 104.611 37.4619 104.65C37.8666 105.237 38.4766 105.489 39.0258 105.87C39.2827 106.053 39.5397 106.237 39.7729 106.434C40.7523 107.259 41.7565 108.007 42.8804 108.627C44.4374 109.497 45.9943 110.367 47.5512 111.237C47.6331 111.29 47.7264 111.369 47.8206 111.383C48.8786 111.652 49.8256 112.27 50.896 112.501C51.249 112.57 51.5888 112.742 51.9171 112.887C52.3862 113.086 52.8914 113.234 53.3852 113.355C54.2083 113.558 55.0066 113.838 55.8781 113.951C56.408 114.021 56.9361 114.221 57.4661 114.291C58.3842 114.443 59.3146 114.556 60.2222 114.617C60.8349 114.675 61.4494 114.604 62.0745 114.623C62.4873 114.628 62.8879 114.671 63.3007 114.675C63.5129 114.69 63.7136 114.679 63.9143 114.668C65.1547 114.552 66.3715 114.448 67.6137 114.202C67.8268 114.153 68.0751 114.116 68.311 114.119C68.7476 114.111 69.1852 114.037 69.6008 113.848C69.6246 113.835 69.6483 113.822 69.6721 113.81C70.4997 113.689 71.2824 113.399 72.0756 113.201C72.2297 113.15 72.3715 113.139 72.5246 113.154C72.6426 113.155 72.7597 113.221 72.8653 113.261C73.0597 113.703 73.2549 114.08 73.4141 114.508C73.5275 114.833 73.6057 115.144 73.7192 115.469C73.866 115.936 74.0243 116.43 74.1948 116.884C74.4674 117.638 74.799 118.392 75.0478 119.158C75.2061 119.651 75.5783 120.03 75.6529 120.6C75.7398 121.131 75.9809 121.613 76.1629 122.093C76.3563 122.6 76.5383 123.081 76.7556 123.575C76.9385 123.99 77.1338 124.368 77.3405 124.771C77.432 124.979 77.5234 125.187 77.6035 125.369C77.9227 126.161 78.2534 126.98 78.5488 127.785C78.7537 128.318 78.9938 128.864 79.27 129.359C79.7652 130.218 80.1892 131.115 80.6607 131.987C80.9941 132.611 81.3512 133.223 81.7198 133.861C82.1634 134.202 82.3674 134.799 82.7511 135.204C82.8206 135.296 82.9139 135.374 82.9482 135.452C83.2692 136.115 83.6017 136.805 83.9227 137.468C83.9913 137.624 84.0599 137.78 84.1522 137.923C84.5912 138.588 85.0426 139.213 85.5054 139.865C85.6787 140.126 85.8406 140.36 86.0139 140.621C86.2339 140.921 86.4177 141.272 86.6614 141.559C87.0908 142.068 87.4251 142.628 87.7832 143.175C88.1184 143.67 88.4175 144.217 88.9324 144.52C89.0608 144.612 89.1532 144.755 89.2694 144.886C89.6864 145.433 90.092 145.955 90.5091 146.503C90.59 146.62 90.671 146.738 90.7643 146.816C91.2078 147.157 91.4488 147.639 91.7373 148.094C92.0259 148.55 92.3382 148.993 92.7219 149.398C93.1408 149.817 93.5359 150.248 93.8711 150.743C94.2643 151.304 94.7413 151.787 95.1944 152.284C95.7637 152.911 96.3577 153.46 96.9033 154.1C98.4247 155.824 100.114 157.329 101.755 158.925C102.268 159.422 102.767 159.958 103.339 160.391C104.25 161.06 104.994 161.883 105.881 162.565C107.095 163.457 108.322 164.311 109.548 165.23C110.47 165.925 111.442 166.466 112.377 167.122C112.505 167.214 112.634 167.306 112.775 167.359C113.467 167.599 114.051 168.058 114.67 168.466C115.115 168.742 115.559 169.019 116.027 169.282C116.226 169.401 116.425 169.519 116.636 169.664C116.963 169.874 117.278 170.123 117.666 170.205C117.76 170.219 117.866 170.259 117.959 170.337C118.66 170.862 119.47 171.168 120.255 171.552C120.665 171.75 121.111 171.897 121.508 172.199C121.683 172.33 121.918 172.397 122.141 172.503C122.868 172.821 123.619 173.126 124.394 173.354C124.594 173.408 124.781 173.501 124.969 173.593C125.626 173.885 126.318 174.125 126.999 174.404C127.925 174.776 128.912 175.084 129.876 175.339C130.581 175.541 131.298 175.768 132.014 175.996C132.695 176.21 133.354 176.372 134.047 176.547C134.212 176.588 134.4 176.616 134.589 176.644C134.789 176.697 135.001 176.713 135.188 176.805C135.998 177.111 136.796 177.391 137.657 177.413C137.752 177.427 137.857 177.467 137.951 177.481C138.786 177.709 139.632 177.964 140.49 178.18C141.172 178.329 141.854 178.479 142.549 178.59C143.844 178.797 145.126 179.043 146.433 179.212C147.741 179.381 149.061 179.447 150.346 179.564C150.735 179.581 151.111 179.636 151.512 179.679C151.901 179.696 152.29 179.713 152.679 179.73C153.009 179.746 153.352 179.724 153.67 179.779C154.659 179.893 155.628 179.825 156.595 179.823C157.008 179.827 157.409 179.805 157.822 179.81C158.259 179.801 158.695 179.793 159.144 179.746C160.031 179.626 160.928 179.596 161.849 179.554C163.029 179.501 164.2 179.294 165.384 179.047C165.679 178.986 165.999 178.911 166.295 178.85C167.348 178.641 168.4 178.496 169.407 178.183C170.26 177.921 171.17 177.852 172.013 177.434C172.524 177.194 173.093 177.018 173.637 176.921C174.063 176.821 174.467 176.606 174.882 176.481C176.185 176.106 177.386 175.433 178.656 174.915C180.601 174.134 182.501 173.312 184.389 172.4C184.734 172.249 185.077 172.162 185.421 172.01C186.062 171.732 186.716 171.415 187.334 171.085C187.667 170.908 187.964 170.717 188.331 170.617C188.592 170.542 188.853 170.402 189.115 170.263C189.424 170.098 189.698 169.92 190.007 169.755C191.551 169.059 193.095 168.299 194.604 167.525C195.257 167.209 195.9 166.801 196.542 166.458C197.707 165.837 198.791 165.097 199.91 164.372C201.077 163.62 202.245 162.804 203.4 162.027C204.603 161.225 205.713 160.343 206.846 159.449C207.693 158.772 208.564 158.083 209.4 157.38C209.555 157.265 209.71 157.15 209.83 157.022C210.55 156.124 211.49 155.525 212.339 154.784C212.721 154.451 213.08 154.067 213.427 153.721C213.547 153.593 213.631 153.452 213.739 153.362C214.31 152.993 214.754 152.467 215.221 151.993C215.724 151.468 216.285 151.008 216.753 150.469C217.4 149.739 218.036 148.982 218.683 148.251C218.983 147.931 219.294 147.636 219.569 147.329C220.505 146.252 221.452 145.136 222.376 144.033C222.628 143.738 222.845 143.429 223.062 143.121C223.808 142.081 224.554 141.04 225.324 139.988C225.925 139.153 226.468 138.317 227.023 137.443C227.554 136.582 228.167 135.773 228.733 134.925C229.24 134.141 229.711 133.344 230.206 132.534C230.545 131.968 230.918 131.415 231.256 130.85C231.765 129.936 232.297 129.01 232.805 128.097C233.06 127.608 233.326 127.145 233.603 126.708C233.923 126.634 234.145 126.804 234.379 126.936C234.976 127.291 235.537 127.634 236.219 127.783C236.419 127.837 236.594 127.968 236.769 128.099C237.692 128.795 238.699 129.284 239.732 129.696C240.307 129.935 240.869 130.212 241.407 130.567C241.98 130.935 242.613 131.175 243.235 131.453C243.563 131.599 243.915 131.732 244.244 131.878C244.361 131.944 244.478 132.009 244.571 132.088C244.909 132.389 245.285 132.51 245.708 132.605C246.202 132.726 246.695 132.912 247.164 133.111C248.115 133.471 249.078 133.726 250.066 133.97C250.466 134.077 250.833 133.978 251.178 133.761C251.404 133.608 251.525 133.416 251.553 133.079C251.326 132.43 251.183 131.704 250.827 131.028C250.459 130.325 250.329 129.56 250.269 128.757C250.25 128.447 250.207 128.149 250.105 127.85C250.026 127.603 249.982 127.37 249.962 127.124C249.925 126.373 249.723 125.646 249.557 124.868C249.082 124.255 248.869 123.438 248.596 122.685C248.358 122.009 248.167 121.309 247.977 120.608C247.808 120.024 247.686 119.415 247.518 118.831C247.248 117.883 247.191 116.886 247.004 115.927C246.862 115.136 246.743 114.333 246.459 113.553C246.254 113.021 246.109 112.424 245.952 111.866C245.838 111.541 245.713 111.255 245.528 110.969C245.343 110.682 245.242 110.319 245.093 109.981C244.991 109.682 244.925 109.397 244.846 109.086C244.622 108.242 244.398 107.399 244.186 106.582C244.04 106.05 243.941 105.492 243.843 104.935C243.745 104.313 243.766 103.692 243.916 103.098C243.941 103.021 243.93 102.93 243.943 102.827C243.874 102.735 243.839 102.657 243.746 102.579C243.641 102.474 243.489 102.395 243.361 102.303C242.567 101.7 241.677 101.212 240.932 100.518C240.676 100.27 240.348 100.059 239.984 99.9649C239.749 99.8977 239.539 99.6885 239.282 99.5047C238.846 99.5131 238.362 99.5469 237.842 99.5673C237.551 100.108 237.377 100.779 236.936 101.111C236.581 101.172 236.309 101.221 236.024 101.308C235.125 101.532 234.269 101.989 233.402 102.355C233.106 102.481 232.844 102.621 232.593 102.851C232.473 102.979 232.295 103.042 232.129 103.131C231.595 103.384 231.036 103.65 230.502 103.903C230.288 104.017 230.085 104.158 229.861 104.181C229.376 104.28 229.006 104.573 228.625 104.841C228.529 104.892 228.457 104.995 228.362 105.045C227.804 105.311 227.349 105.746 226.896 106.117C226.299 106.628 225.679 107.088 225.117 107.612C224.484 108.175 223.874 108.79 223.263 109.404C222.892 109.763 222.557 110.135 222.198 110.519C221.851 110.865 221.55 111.25 221.308 111.7C220.915 111.942 220.604 112.236 220.386 112.674C220.143 113.124 219.796 113.535 219.402 113.841C218.817 114.314 218.36 114.943 218.02 115.638C217.898 115.896 217.777 116.153 217.679 116.398C217.721 116.761 217.966 116.983 218.187 117.218C218.582 117.65 218.988 118.107 219.396 118.499C220.129 119.231 220.945 119.887 221.884 120.285C222.822 120.683 223.687 121.248 224.553 121.749C224.951 121.986 225.348 122.287 225.795 122.37C225.865 122.396 225.936 122.423 226.018 122.475C226.414 122.777 226.837 122.937 227.271 123.123C227.564 123.255 227.809 123.413 227.959 123.686C227.956 123.88 227.896 124.009 227.777 124.072C227.515 124.212 227.37 124.482 227.224 124.752C227.078 125.087 226.92 125.396 226.714 125.795C226.688 126.002 226.637 126.286 226.608 126.622C226.367 127.008 226.078 127.419 225.824 127.843C225.607 128.216 225.365 128.602 225.183 128.988C224.77 129.851 224.217 130.595 223.71 131.379C223.433 131.816 223.073 132.201 222.842 132.677C222.538 133.321 222.118 133.834 221.768 134.438C221.514 134.863 221.26 135.287 220.913 135.633C220.889 135.646 220.877 135.684 220.853 135.697C220.477 136.444 219.926 137.059 219.491 137.74C219.298 138.036 219.106 138.331 218.889 138.64C218.612 139.012 218.289 139.345 217.828 139.431C217.67 139.74 217.466 140.009 217.332 140.305C217.185 140.64 216.957 140.923 216.648 141.088C216.411 141.215 216.207 141.419 216.074 141.651C215.687 142.307 215.184 142.832 214.717 143.371C214.621 143.486 214.537 143.563 214.476 143.692C214.244 144.233 213.874 144.591 213.468 144.936C213.217 145.166 212.977 145.423 212.796 145.744C212.565 146.221 212.159 146.566 211.719 146.833C211.231 147.125 210.859 147.549 210.476 147.946C210.32 148.125 210.153 148.279 209.962 148.445C209.461 148.841 209.053 149.315 208.691 149.894C208.329 150.472 207.885 150.998 207.29 151.315C206.839 151.557 206.386 151.862 205.969 152.182C205.599 152.475 205.311 152.822 205.15 153.325C204.59 153.72 203.983 154.14 203.434 154.562C203.172 154.766 202.908 155.035 202.657 155.265C202.214 155.726 201.761 156.097 201.214 156.389C200.62 156.706 200.001 157.036 199.603 157.666C199.483 157.859 199.268 158.038 199.066 158.113C198.39 158.378 197.84 158.864 197.292 159.285C196.982 159.515 196.659 159.783 196.361 160.039C196.253 160.128 196.146 160.218 196.051 160.269C195.468 160.612 194.85 160.942 194.267 161.285C193.85 161.54 193.458 161.781 193.076 162.049C192.624 162.355 192.113 162.595 191.638 162.849C190.71 163.344 189.829 163.943 188.879 164.386C188.76 164.45 188.641 164.513 188.522 164.577C187.987 164.894 187.428 165.225 186.824 165.387C186.48 165.474 186.159 165.678 185.815 165.829C185.434 166.032 185.065 166.326 184.627 166.399C184.568 166.399 184.532 166.45 184.484 166.475C183.507 167.19 182.358 167.514 181.323 168.099C181.133 168.2 180.931 168.276 180.742 168.313C180.458 168.4 180.197 168.475 179.958 168.667C179.851 168.756 179.721 168.794 179.602 168.857C178.772 169.172 177.93 169.461 177.122 169.828C176.707 170.017 176.313 170.324 175.86 170.63C175.198 170.791 174.44 171.003 173.761 171.397C173.405 171.587 172.979 171.686 172.576 171.773C172.257 171.847 171.984 171.961 171.721 172.165C171.566 172.28 171.4 172.369 171.246 172.419C170.049 172.769 168.853 173.118 167.702 173.572C167.548 173.622 167.406 173.634 167.241 173.658C166.566 173.793 165.881 173.903 165.216 174.193C164.919 174.32 164.623 174.381 164.327 174.443C163.701 174.553 163.05 174.675 162.445 174.902C162.161 174.99 161.83 175.038 161.534 175.1C160.777 175.247 160.02 175.394 159.251 175.516C158.754 175.588 158.283 175.583 157.775 175.63C157.467 175.665 157.172 175.662 156.865 175.698C155.565 175.878 154.243 175.942 152.934 175.903C151.684 175.864 150.41 175.838 149.136 175.812C147.615 175.757 146.118 175.625 144.587 175.415C143.692 175.315 142.798 175.15 141.926 175.038C140.831 174.884 139.737 174.666 138.643 174.447C138.219 174.352 137.796 174.257 137.361 174.136C135.504 173.651 133.658 173.192 131.801 172.707C130.343 172.33 128.898 171.913 127.476 171.485C126.971 171.337 126.49 171.112 126.009 170.952C123.73 170.242 121.489 169.352 119.356 168.308C117.528 167.422 115.689 166.51 113.958 165.444C113.151 164.944 112.343 164.444 111.56 163.931C110.824 163.457 110.098 163.01 109.374 162.498C108.556 161.907 107.739 161.316 106.945 160.713C105.731 159.82 104.588 158.825 103.458 157.791C102.026 156.469 100.569 155.16 99.2927 153.659C98.4339 152.641 97.5152 151.687 96.6441 150.707C95.3084 149.205 93.985 147.665 92.829 145.971C92.6785 145.762 92.5158 145.592 92.3768 145.41C92.2958 145.292 92.1787 145.227 92.1216 145.097C91.4301 143.925 90.5828 142.933 89.8314 141.825C88.8487 140.392 87.8783 138.919 86.9554 137.422C86.5745 136.823 86.2411 136.198 85.884 135.586C85.723 135.287 85.5259 135.039 85.365 134.74C85.1802 134.453 85.0306 134.18 84.8697 133.881C84.8125 133.751 84.7553 133.621 84.6744 133.503C84.2345 132.904 83.8897 132.253 83.5924 131.577C83.4095 131.161 83.2142 130.784 83.0312 130.368C82.9055 130.082 82.7674 129.835 82.6416 129.549C82.5273 129.289 82.3654 129.054 82.2863 128.808C82.0032 127.964 81.5774 127.196 81.1041 126.453C80.9774 126.232 80.8621 126.037 80.7592 125.803C80.44 125.01 80.0733 124.243 79.6114 123.527C79.461 123.318 79.3589 123.019 79.3274 122.747C79.2729 122.423 79.1833 122.086 79.0461 121.774C78.6926 120.903 78.3153 120.046 77.9855 119.162C77.7015 118.383 77.465 117.578 77.2998 116.736C77.2234 116.295 77.0643 115.866 76.9166 115.464C76.5983 114.606 76.2561 113.762 75.9264 112.878C75.813 112.554 75.711 112.255 75.7754 111.868C76.0044 111.521 76.3839 111.382 76.7625 111.309C77.2 111.236 77.5585 110.916 77.9846 110.817C78.1387 110.766 78.2708 110.6 78.4258 110.485C78.7366 110.19 79.0589 109.922 79.4851 109.823C79.8284 109.736 80.068 109.48 80.3076 109.223C80.7145 108.814 81.1785 108.534 81.7473 108.359C82.1322 107.832 82.6095 107.449 83.1915 107.17C83.5957 106.955 84.0008 106.674 84.3364 106.302C84.5284 106.072 84.7784 105.906 85.0513 105.792C85.3718 105.653 85.6458 105.475 85.8739 105.193C86.1619 104.846 86.4956 104.604 86.8646 104.375C87.0548 104.273 87.2336 104.146 87.3771 104.005C87.5806 103.8 87.703 103.478 87.9531 103.312C88.1918 103.121 88.4181 102.968 88.6101 102.737C88.8972 102.455 89.2424 102.239 89.5295 101.957C89.8765 101.612 90.2349 101.292 90.6743 101.089C90.7959 100.832 90.9289 100.6 91.0629 100.304C91.6115 99.8828 92.1486 99.4356 92.7096 98.9756C92.8408 98.8735 92.9368 98.758 93.0214 98.6166C93.3474 98.0895 93.7543 97.6796 94.2773 97.4004C94.6577 97.1973 94.9105 96.8377 95.1985 96.4914C95.4143 96.2478 95.6301 96.0041 95.8344 95.7345C95.9666 95.5677 96.1224 95.3882 96.1841 95.1948C96.3066 94.8726 96.5224 94.629 96.703 94.3721C96.895 94.1412 97.0756 93.8843 97.2676 93.6534C97.5433 93.3457 97.7952 93.0507 98.1906 92.6149C98.2391 92.5249 98.3607 92.2674 98.4338 92.0999C98.7324 91.8443 98.9596 91.6267 99.2106 91.3964C99.4917 90.7006 100.029 90.2533 100.474 89.6628C100.535 89.4693 100.586 89.2499 100.624 89.0691C100.948 88.6714 101.272 88.2737 101.608 87.8372C101.821 87.7877 102.001 87.5955 102.158 87.3513C102.471 86.8629 102.785 86.3745 103.11 85.9121C103.375 85.5137 103.535 85.0754 103.589 84.5973C104.018 84.2395 104.331 83.8157 104.656 83.3533C105.066 82.7494 105.464 82.1196 105.862 81.4897C106.176 81.0013 106.337 80.4337 106.405 79.7875C106.549 79.6466 106.681 79.4798 106.836 79.3649C107.122 79.148 107.326 78.8784 107.461 78.5175C107.571 78.234 107.67 77.9245 107.78 77.641C108.038 76.9579 108.295 76.2748 108.809 75.7755C108.929 75.6474 109.014 75.4413 109.088 75.2738C109.331 74.7588 109.55 74.2564 109.805 73.7674C110.266 72.8794 110.68 71.9522 110.859 70.9577C110.884 70.8803 110.897 70.777 110.933 70.7256C111.247 70.1725 111.339 69.5136 111.607 68.9212C111.693 68.7151 111.778 68.5089 111.793 68.2762C111.846 67.8627 111.992 67.5278 112.116 67.1409C112.227 66.7927 112.338 66.4445 112.355 66.0824C112.408 65.6689 112.485 65.2427 112.632 64.8431C112.962 63.9926 113.034 63.0876 113.117 62.2087C113.143 62.0666 113.109 61.9239 113.17 61.7952C113.331 61.2275 113.351 60.6714 113.205 60.1394C113.172 59.9967 113.197 59.8546 113.199 59.7252C113.282 58.8463 113.377 57.9933 113.554 57.1283C113.743 56.2892 113.602 55.4338 113.389 54.6164C113.288 54.253 113.151 53.8764 112.991 53.5124C112.843 53.1745 112.753 52.8371 112.759 52.449C112.79 51.8542 112.633 51.2962 112.441 50.7249C112.145 49.9196 111.791 49.1137 111.316 48.4359C110.877 47.7715 110.379 47.1711 109.856 46.5834C109.042 45.7339 108.204 44.8971 107.426 43.9962C107.136 43.6697 106.797 43.4333 106.422 43.2482C105.392 42.707 104.274 42.5013 103.215 42.2962C102.718 42.3687 102.43 42.715 102.166 43.0487C101.337 43.2341 100.701 43.1887 99.8559 42.8694C99.1006 42.8874 98.3787 43.0481 97.6558 43.2735C97.3477 43.3738 97.0158 43.4867 96.7067 43.6517C96.4452 43.7913 96.196 43.8923 95.8896 43.8632C95.5243 43.8335 95.2038 43.9725 94.8939 44.2022C94.2854 44.6875 93.6196 45.0429 92.8405 45.0736C92.3211 45.0941 91.8246 45.1666 91.2673 45.3678C91.0762 45.534 90.8613 45.7129 90.6464 45.8918C90.2317 46.0169 89.8408 46.1292 89.4165 46.0989C89.1692 46.0705 88.9675 46.146 88.7536 46.2603C88.3494 46.476 87.9461 46.6271 87.5877 46.9468C87.5278 47.0109 87.4679 47.075 87.3852 47.087C86.6747 47.2737 86.2175 47.903 85.6337 48.3109C85.6099 48.3236 85.5861 48.3363 85.5624 48.349C85.2136 48.8241 84.7029 49.0647 84.2159 49.2925C84.1684 49.3179 84.1323 49.3693 83.965 49.5228C83.9526 49.5615 83.8785 49.7936 83.7921 50.0644C83.8159 50.0517 83.7684 50.0771 83.7446 50.0898C83.5307 50.204 83.3404 50.3055 83.1379 50.4458C82.9116 50.5987 82.7433 50.8169 82.5056 50.9438C82.1014 51.1596 81.8372 51.4932 81.7719 51.9454C81.5922 52.1376 81.4248 52.2911 81.2337 52.4574C80.9969 52.5196 80.7839 52.5691 80.5233 52.644C80.4149 52.7982 80.2828 52.965 80.1621 53.1579C80.0528 53.3767 79.9198 53.6082 79.8343 53.8143C79.651 54.2653 79.4097 54.6509 78.9351 54.84C78.4328 56.1675 77.4174 57.0627 76.6265 57.9343C76.2484 58.8102 75.9549 59.5447 75.6025 60.2785C75.517 60.4847 75.3611 60.6642 75.2176 60.805C74.8829 61.1121 74.6653 61.4851 74.5648 61.9239C74.4519 62.4015 74.222 62.8131 73.8635 63.1328C73.4813 63.4653 73.298 63.9162 73.3022 64.4597C73.3072 64.9385 73.1592 65.4028 72.9996 65.841C72.9018 66.0858 72.7926 66.3047 72.6015 66.4709C72.1832 66.8547 71.9875 67.3443 71.8262 67.912C71.6392 68.6217 71.4761 69.3187 71.1483 69.9751C70.9906 70.284 70.9271 70.6068 70.9578 70.9436C71.0209 71.4877 70.9433 71.9785 70.6649 72.4802C70.3504 73.0333 70.27 73.7183 70.1905 74.3385C70.0617 75.1135 69.968 75.9018 69.7449 76.6629C69.5475 77.2819 69.35 77.9009 69.4351 78.5616C69.4553 78.8077 69.3927 79.0658 69.3538 79.3112C69.2744 79.9315 69.2186 80.539 69.0449 81.1454C68.8836 81.713 68.864 82.2692 68.9157 82.7873C68.6213 83.5864 68.6333 84.4146 68.6339 85.2168C68.6362 85.8897 68.5796 86.5619 68.6999 87.236C68.7333 87.3786 68.7068 87.5854 68.6812 87.7275C68.4952 88.3725 68.6041 89.0205 68.654 89.668C68.6636 89.8234 68.6856 89.9401 68.719 90.0827C68.9975 91.2501 69.0631 92.4671 69.0696 93.6834C69.0678 93.8128 69.0774 93.9681 69.0518 94.1102C68.9266 94.6265 68.9907 95.1058 68.9834 95.6233C68.9917 96.7103 69.3197 97.7229 69.5411 98.7603C69.6527 99.2144 69.7168 99.6938 69.8046 100.16C69.8934 100.562 69.9935 100.991 70.0585 101.405C70.1024 101.639 70.1577 101.898 70.1779 102.144C70.2224 103.18 70.5275 104.14 70.7022 105.138C70.812 105.722 71.0169 106.254 71.1857 106.838C70.9823 107.043 71.0156 107.186 71.0253 107.341ZM74.1256 105.847C73.8562 105.702 73.7524 105.532 73.7199 105.325C73.6787 104.898 73.6728 104.484 73.6316 104.056C73.6018 103.655 73.5958 103.241 73.4709 102.89C73.164 102.059 72.9989 101.216 72.8337 100.373C72.7468 99.8417 72.6124 99.3357 72.5254 98.8043C72.4271 98.2469 72.3639 97.7028 72.3131 97.1201C72.265 96.3432 72.1227 95.5525 72.1926 94.7769C72.2332 94.4021 72.1445 94 72.1147 93.5986C72.106 93.3786 72.0031 93.1446 72.0296 92.9379C72.073 92.369 72.0098 91.8249 71.9942 91.2554C71.9672 90.66 71.9754 90.0778 71.9721 89.4696C71.9387 89.327 71.7626 89.2604 71.871 89.1063C71.9318 88.9775 71.9926 88.8488 71.9944 88.7194C72.0044 88.0079 72.0495 87.3097 72.0357 86.6108C72.0123 85.7566 72.0594 84.929 72.2129 84.0767C72.2517 83.8312 72.2906 83.5858 72.318 83.3143C72.3746 82.6421 72.4312 81.9699 72.5117 81.2849C72.7227 79.6956 73.1221 78.1342 73.4274 76.5589C73.5535 75.9779 73.7501 75.4236 73.9115 74.856C74.0737 74.2237 74.1769 73.5907 74.5495 73.1029C74.6043 72.5601 74.6582 72.0819 74.7235 71.6297C74.803 71.0095 75.0234 70.4425 75.3607 69.9413C75.4814 69.7485 75.5431 69.5551 75.6286 69.349C75.7995 68.9367 75.9705 68.5244 76.1415 68.1121C76.2517 67.8286 76.397 67.5584 76.5072 67.2749C76.7513 66.6952 76.9839 66.0895 77.2518 65.4971C77.6527 64.6732 78.0888 63.8626 78.5012 63.0647C78.5981 62.8845 78.695 62.7044 78.8147 62.5763C79.2454 62.1538 79.5009 61.6001 79.7917 61.0596C79.9009 60.8408 80.034 60.6093 80.1899 60.4298C80.9588 59.4415 81.6345 58.3746 82.4853 57.4389C83.5043 56.285 84.4538 55.0398 85.589 54.0165C86.1984 53.4665 86.7736 52.8385 87.5106 52.445C87.9147 52.2293 88.2503 51.8576 88.5973 51.5118C88.681 51.435 88.7188 51.2543 88.755 51.2029C88.9442 51.1661 89.1327 51.1939 89.2991 51.1051C89.6196 50.9661 89.882 50.7618 90.1911 50.5968C90.3575 50.5079 90.501 50.3671 90.6665 50.343C91.3295 50.1817 91.9239 49.8644 92.5534 49.5604C93.0404 49.3326 93.515 49.1434 94.0124 49.0062C94.5451 48.8824 95.0434 48.6806 95.5646 48.5308C96.3112 48.2927 97.0579 48.0546 97.7922 47.8552C98.2896 47.7181 98.8099 47.6329 99.3188 47.5217C101.023 47.1254 101.165 47.114 103.136 47.0569C103.455 47.0473 103.81 46.9863 104.118 46.886C104.402 46.7984 104.674 46.7494 104.957 46.7912C105.31 46.8595 105.687 46.8506 106.04 46.9189C107.311 47.1392 107.312 47.1392 108.232 47.9639C108.279 48.0032 108.301 48.0552 108.336 48.1332C108.234 48.6367 108.356 49.1814 108.586 49.6367C108.678 49.8446 108.71 50.052 108.754 50.2854C108.873 51.0241 108.862 51.8004 109.017 52.5524C109.128 53.0711 109.238 53.5898 108.972 54.1175C108.959 54.1562 108.958 54.2209 108.957 54.2856C108.902 54.8932 108.881 55.514 108.802 56.1342C108.773 56.4703 108.721 56.8192 108.623 57.1287C108.425 57.7477 108.346 58.3679 108.407 59.0414C108.448 59.4688 108.395 59.8823 108.366 60.2831C108.209 60.5273 108.065 60.7328 107.944 60.9256C107.891 61.3391 107.85 61.7139 107.656 62.0742C107.608 62.1643 107.571 62.2804 107.569 62.4097C107.564 62.7978 107.417 63.1327 107.295 63.4549C107.086 64.0479 106.854 64.589 106.681 65.1953C106.532 65.7242 106.324 66.2525 106.034 66.7283C105.913 66.9211 105.863 67.1405 105.777 67.3467C105.509 68.0037 105.298 68.7261 104.924 69.3433C104.718 69.6776 104.536 70.0638 104.459 70.49C104.433 70.6968 104.323 70.9156 104.203 71.1084C103.645 72.1766 103.099 73.2706 102.705 74.444C102.692 74.4827 102.668 74.5601 102.632 74.6115C102.381 74.8417 102.293 75.1772 102.124 75.4601C101.943 75.7817 101.785 76.0906 101.557 76.3728C101.305 76.6678 101.088 76.9761 100.93 77.3497C100.685 77.9294 100.337 78.4045 99.9879 78.8796C99.4946 79.5602 99.1061 80.3454 98.5195 80.9475C98.4235 81.0629 98.3503 81.2304 98.2657 81.3719C97.7565 82.3499 97.1416 83.288 96.4458 84.1089C96.1816 84.4425 95.9763 84.7768 95.7825 85.1371C95.5279 85.6261 95.2266 86.0758 94.8321 86.447C94.6049 86.6646 94.4005 86.9342 94.2314 87.2171C94.0261 87.5513 93.798 87.8336 93.4995 88.0892C93.2485 88.3195 93.0203 88.6018 92.7922 88.8841C92.5394 89.2438 92.3218 89.6167 92.0804 90.0024C91.8276 90.362 91.5748 90.7217 91.2173 90.9768C91.0861 91.0789 90.9444 91.0904 90.8017 91.1665C90.7048 91.3467 90.6317 91.5141 90.5347 91.6942C90.3322 91.8345 90.1297 91.9747 90.0584 92.0128C89.3237 93.079 88.6851 94.0299 87.6865 94.5629C87.5183 94.7811 87.4091 94.9999 87.2532 95.1795C87.0136 95.4357 86.7274 95.6527 86.4878 95.909C86.2245 96.178 86.0193 96.5122 85.7445 96.7552C85.3861 97.075 84.9695 97.3294 84.5997 97.6232C84.3372 97.8275 84.051 98.0444 83.8229 98.3267C83.15 99.1996 82.2219 99.7592 81.468 100.515C80.3963 101.215 79.417 102.059 78.2768 102.604C78.1579 102.667 78.0505 102.756 77.9431 102.846C77.7808 103.478 77.3748 103.823 76.8061 103.999C76.6995 104.023 76.6159 104.1 76.5094 104.125C76.2003 104.29 75.9264 104.468 75.6982 104.75C75.3503 105.161 74.8634 105.389 74.3994 105.668C74.4918 105.812 74.2796 105.797 74.1256 105.847ZM234.496 124.466C234.558 124.272 234.632 124.04 234.694 123.847C234.915 123.215 235.101 122.57 235.357 121.952C235.541 121.501 235.712 121.024 236.037 120.626C236.312 120.318 236.471 119.945 236.571 119.506C236.623 119.222 236.756 118.926 236.855 118.616C237.238 117.417 237.843 116.323 238.19 115.111C238.227 114.995 238.276 114.904 238.324 114.814C238.471 114.479 238.652 114.158 238.763 113.81C239.009 113.101 239.255 112.392 239.618 111.748C239.751 111.517 239.837 111.246 239.947 111.027C240.278 110.979 240.416 111.226 240.531 111.421C240.761 111.877 240.978 112.371 241.16 112.851C241.444 113.631 241.526 114.485 241.869 115.265C241.903 115.343 241.914 115.434 241.913 115.499C242.057 116.16 242.142 116.821 242.334 117.457C242.514 118.067 242.576 118.74 242.876 119.222C242.905 119.624 242.901 119.947 242.955 120.271C243.096 121.191 243.094 122.123 243.341 123.018C243.353 123.044 243.341 123.083 243.352 123.109C243.389 123.86 243.52 124.56 243.711 125.26C243.992 126.234 244.167 127.232 244.567 128.142C244.693 128.428 244.76 128.713 244.838 129.024C244.883 129.193 244.845 129.374 244.679 129.463C244.465 129.577 244.266 129.458 244.078 129.366C242.812 128.822 241.545 128.278 240.291 127.696C239.892 127.524 239.53 127.235 239.107 127.14C239.037 127.114 238.979 127.048 238.908 127.022C238.076 126.599 237.257 126.138 236.401 125.728C235.769 125.424 235.209 124.952 234.625 124.558C234.565 124.622 234.542 124.57 234.496 124.466ZM229.003 121.588C228.721 121.481 228.522 121.428 228.346 121.361C227.737 121.044 227.128 120.727 226.554 120.424C226.097 120.186 225.64 119.948 225.172 119.685C224.867 119.526 224.575 119.329 224.378 119.081C224.185 118.575 224.402 118.202 224.724 117.933C225.429 117.333 225.947 116.575 226.593 115.909C227.204 115.294 227.663 114.535 228.378 114.025C229.277 112.999 230.269 112.117 231.295 111.248C231.761 110.839 232.25 110.481 232.727 110.098C232.906 109.971 233.121 109.792 233.414 109.924C233.516 110.223 233.571 110.547 233.448 110.869C233.252 111.359 233.068 111.874 232.873 112.364C232.787 112.57 232.69 112.75 232.64 112.97C232.515 113.486 232.354 113.989 232.042 114.413C231.969 114.515 231.92 114.67 231.859 114.799C231.541 115.611 231.247 116.41 230.952 117.209C230.891 117.338 230.831 117.466 230.77 117.595C230.55 118.162 230.305 118.742 230.085 119.309C229.939 119.644 229.828 119.992 229.682 120.327C229.452 120.739 229.234 121.112 229.003 121.588Z" fill="url(#paint0_linear_245_487)"/>
<defs>
<linearGradient id="paint0_linear_245_487" x1="259.187" y1="132.412" x2="82.0832" y2="-89.0114" gradientUnits="userSpaceOnUse">
<stop stop-color="#6AFFD0"/>
<stop offset="0.33" stop-color="#00E19A"/>
<stop offset="0.94" stop-color="#067E58"/>
</linearGradient>
</defs>
</svg>
