<svg width="800" height="800" viewBox="0 0 800 800" fill="none" xmlns="http://www.w3.org/2000/svg">
<path fill-rule="evenodd" clip-rule="evenodd" d="M400 201.199C311.1 201.199 255.567 245.366 233.333 333.733C266.667 289.566 305.567 272.999 350 284.033C375.367 290.333 393.5 308.633 413.533 328.866C446.233 361.833 484.067 399.999 566.667 399.999C655.567 399.999 711.1 355.833 733.333 267.466C700 311.633 661.133 328.199 616.667 317.166C591.3 310.866 573.167 292.566 553.1 272.333C520.433 239.333 482.633 201.199 400 201.199ZM233.333 399.999C144.433 399.999 88.9001 444.166 66.6667 532.533C100 488.333 138.9 471.799 183.333 482.833C208.7 489.133 226.833 507.433 246.9 527.666C279.567 560.633 317.4 598.799 400.033 598.799C488.933 598.799 544.467 554.633 566.7 466.266C533.367 510.433 494.467 526.999 450.033 515.966C424.667 509.666 406.533 491.366 386.5 471.133C353.767 438.166 315.933 399.999 233.333 399.999Z" fill="url(#paint0_linear_375_207)"/>
<defs>
<linearGradient id="paint0_linear_375_207" x1="400" y1="201.199" x2="400" y2="598.799" gradientUnits="userSpaceOnUse">
<stop stop-color="#1DA7BB"/>
<stop offset="1" stop-color="#13C7B7"/>
</linearGradient>
</defs>
</svg>
