<svg width="203" height="212" viewBox="0 0 203 212" fill="none" xmlns="http://www.w3.org/2000/svg">
<mask id="mask0_10_110" style="mask-type:alpha" maskUnits="userSpaceOnUse" x="2" y="48" width="183" height="135">
<path d="M66.6366 143.723C78.8195 175.136 114.161 190.725 145.573 178.542C176.986 166.359 192.575 131.018 180.392 99.605C168.209 68.1923 41.9171 39.1276 10.5044 51.3105C-20.9083 63.4933 54.4538 112.31 66.6366 143.723Z" fill="#FFCB3C"/>
</mask>
<g mask="url(#mask0_10_110)">
<path fill-rule="evenodd" clip-rule="evenodd" d="M127.337 111.422C130.281 108.583 134.139 106.749 139.015 106.332C155.663 104.909 166.304 114.185 172.506 127.747C181.218 146.81 180.8 174.599 176.711 189.912C176.233 191.701 174.394 192.762 172.606 192.287C170.82 191.808 169.755 189.97 170.234 188.181C174.025 173.983 174.489 148.212 166.407 130.536C161.412 119.602 153.004 111.865 139.584 113.01C136.682 113.259 134.351 114.285 132.508 115.863C133.741 116.984 134.944 118.121 136.113 119.272C140.787 123.88 150.548 137.924 153.567 149.861C155.954 159.308 154.203 167.426 145.322 170.597C140.238 172.414 135.346 170.813 131.185 166.693C126.053 161.611 122.031 152.352 120.466 142.587C119.161 134.468 119.553 126.039 122.139 119.47C122.501 118.55 122.905 117.663 123.349 116.815C98.6245 96.5234 62.8339 82.6768 31.7031 82.9396C29.8541 82.9556 28.3423 81.4674 28.3251 79.6152C28.3091 77.7662 29.8002 76.2532 31.6492 76.2372C64.1198 75.9617 101.442 90.3181 127.337 111.422ZM128.607 121.381C129.559 122.259 130.494 123.148 131.403 124.046C135.599 128.182 144.357 140.789 147.068 151.505C148.501 157.176 148.395 162.38 143.065 164.286C140.45 165.22 138.04 164.048 135.902 161.929C133.066 159.121 130.739 154.724 129.077 149.727C126.505 141.974 125.573 132.757 127.334 125.301C127.659 123.924 128.08 122.606 128.607 121.381Z" fill="#35312B"/>
<path fill-rule="evenodd" clip-rule="evenodd" d="M67.7903 113.913C59.8389 100.642 44.6497 89.1313 30.5679 82.5339C28.8935 81.7487 28.17 79.7535 28.954 78.076C29.7392 76.4017 31.7376 75.677 33.4119 76.4621C48.6285 83.5938 64.9517 96.1279 73.5405 110.468C74.4905 112.055 73.9732 114.115 72.3858 115.065C70.7983 116.015 68.7403 115.501 67.7903 113.913Z" fill="#35312B"/>
<path fill-rule="evenodd" clip-rule="evenodd" d="M32.9115 75.9694C45.4892 77.8542 61.5825 72.4971 71.9396 65.0503C73.4444 63.9706 75.5411 64.3152 76.6196 65.8168C77.6981 67.3185 77.3567 69.4139 75.8531 70.4968C64.2064 78.8644 46.0593 84.7195 31.9167 82.6003C30.0888 82.3277 28.825 80.6175 29.1007 78.7884C29.3765 76.9592 31.0836 75.6967 32.9115 75.9694Z" fill="#35312B"/>
</g>
</svg>
