<svg width="208" height="222" viewBox="0 0 208 222" fill="none" xmlns="http://www.w3.org/2000/svg">
<mask id="mask0_10_122" style="mask-type:alpha" maskUnits="userSpaceOnUse" x="11" y="28" width="195" height="177">
<path d="M151.47 145.89C144.645 184.24 108.023 209.796 69.673 202.97C31.323 196.145 5.76737 159.523 12.5929 121.173C19.4183 82.8227 156.221 21.7244 194.571 28.5499C232.921 35.3754 158.296 107.54 151.47 145.89Z" fill="#FFCB3C"/>
</mask>
<g mask="url(#mask0_10_122)">
<path fill-rule="evenodd" clip-rule="evenodd" d="M75.414 122.763C71.4421 120.198 66.6564 118.976 61.0326 119.589C41.8287 121.682 31.8227 134.576 27.8073 151.342C22.1682 174.909 28.8316 206.342 36.8802 222.803C37.8212 224.726 40.1438 225.521 42.0662 224.584C43.9855 223.643 44.7844 221.321 43.8435 219.398C36.3806 204.135 30.1151 175.001 35.3466 153.149C38.5789 139.632 46.3947 128.982 61.8738 127.293C65.2215 126.928 68.0943 127.573 70.5373 128.953C69.3881 130.5 68.2763 132.058 67.2065 133.623C62.9299 139.892 54.9839 157.998 54.2173 172.213C53.6127 183.462 57.4081 192.282 68.1888 193.901C74.3608 194.83 79.5545 191.925 83.358 186.323C88.0475 179.415 90.5487 168.016 90.1499 156.589C89.8217 147.087 87.5006 137.613 83.1033 130.737C82.4876 129.773 81.8319 128.857 81.1392 127.994C104.67 99.467 142.189 75.7879 177.565 69.1532C179.666 68.7596 181.05 66.7345 180.657 64.6295C180.263 62.5283 178.235 61.1439 176.134 61.5375C139.235 68.4562 100.092 93.0547 75.414 122.763ZM76.1909 134.344C75.3066 135.553 74.4444 136.769 73.6129 137.991C69.7734 143.617 62.6455 159.869 61.9567 172.63C61.5933 179.383 62.873 185.264 69.3441 186.238C72.5182 186.716 74.9917 184.85 76.945 181.97C79.5375 178.153 81.1986 172.646 81.9703 166.607C83.1615 157.238 82.1662 146.575 78.5083 138.508C77.8328 137.018 77.0625 135.617 76.1909 134.344Z" fill="#35312B"/>
<path fill-rule="evenodd" clip-rule="evenodd" d="M143.523 112.329C149.588 95.5018 164.256 79.0606 178.763 68.44C180.487 67.1764 180.864 64.7518 179.601 63.0233C178.337 61.2987 175.909 60.9216 174.184 62.1852C158.509 73.6646 142.783 91.5194 136.232 109.701C135.508 111.713 136.554 113.934 138.566 114.658C140.579 115.383 142.799 114.341 143.523 112.329Z" fill="#35312B"/>
<path fill-rule="evenodd" clip-rule="evenodd" d="M174.642 61.5148C160.793 66.4541 141.342 63.9607 127.934 57.8191C125.986 56.9292 123.684 57.7871 122.795 59.7308C121.906 61.6746 122.76 63.9758 124.707 64.8694C139.783 71.7685 161.675 74.3697 177.247 68.8159C179.26 68.0996 180.313 65.8779 179.593 63.8642C178.873 61.8506 176.655 60.7985 174.642 61.5148Z" fill="#35312B"/>
</g>
</svg>
